<?xml version="1.0" encoding="UTF-8"?>
<svg id="Layer_1" data-name="Layer 1" xmlns="http://www.w3.org/2000/svg" viewBox="0 0 1080 1080">
  <defs>
    <style>
      .cls-1 {
        fill: #2338eb;
      }
    </style>
  </defs>
  <g>
    <path class="cls-1" d="M415.4,526.84c0-16.69-6.21-32.64-17.49-44.93-11.21-12.21-26.43-19.77-42.86-21.27-1.98-.19-4.06-.29-6.16-.29h-56.93l-9.92,17.79h66.85c26.86,0,48.72,21.85,48.72,48.71,0,14.39-6.21,27.78-17.11,37.06l-5.63-9.74c7.46-7.1,11.71-16.98,11.71-27.32,0-20.78-16.91-37.68-37.69-37.68h-41.53c-13.72,0-26.66,5.28-36.44,14.88-4.41,4.31-7.99,9.31-10.63,14.88-2.26,4.72-3.77,9.74-4.49,14.89-.36,2.46-.54,4.97-.54,7.45s.18,4.98,.54,7.44c.74,5.19,2.25,10.2,4.49,14.88,2.63,5.56,6.2,10.57,10.61,14.89,5.75,5.62,12.78,9.87,20.38,12.34v28.87h15.34v-26.34c.25,0,.5,0,.75,0h41.53c5.86,0,11.66-.76,17.25-2.26l2.13-.57-9.23-15.99-1.18,.22c-2.93,.55-5.94,.82-8.96,.82h-41.53c-10.89,0-20.9-5-27.45-13.73-3.09-4.12-5.17-8.73-6.17-13.72-.46-2.26-.69-4.57-.69-6.87s.23-4.61,.69-6.87c1-4.92,3.13-9.67,6.17-13.72,5.77-7.68,14.54-12.62,24.07-13.56,1.05-.11,2.15-.16,3.38-.16h41.53c10.98,0,19.91,8.93,19.91,19.91,0,3.94-1.17,7.77-3.33,11.03l-8.47-14.68-.98-1.71-.08-.08c-.2-.26-.43-.52-.71-.8-1.68-1.72-3.92-2.66-6.33-2.66h-41.53c-2.54,0-5.05,.41-7.45,1.22l-1.15,.4v.03c-6.19,2.46-11.13,7.57-13.35,13.87-.89,2.48-1.33,5.1-1.33,7.77s.45,5.29,1.33,7.76c3.28,9.29,12.1,15.52,21.96,15.52h41.53c.51,0,1.01-.01,1.51-.03l2.79-.12-10.18-17.63h-35.64c-1.06,0-2.09-.3-2.98-.87-1.59-1.03-2.53-2.76-2.53-4.64,0-.95,.24-1.85,.71-2.69l.09-.16c1-1.65,2.79-2.67,4.72-2.67h39.16l48.46,83.93h17.71l-23.2-40.17c16.24-12.54,25.9-32.11,25.9-52.66Z"/>
    <g>
      <path class="cls-1" d="M580.3,521.9c-5.65-3.32-12.47-4.98-20.46-4.98s-14.8,1.68-20.46,5.04c-5.65,3.36-9.98,7.8-12.99,13.33-3.01,5.53-4.51,11.65-4.51,18.37,0,4.7,.85,9.2,2.56,13.51,1.7,4.3,4.19,8.1,7.47,11.38,3.27,3.28,7.24,5.88,11.91,7.79,4.66,1.9,10,2.86,16.02,2.86,5.38,0,10.3-.83,14.74-2.49,4.44-1.66,8.28-3.86,11.51-6.6,3.23-2.74,5.74-5.94,7.54-9.62l-18.3-5.25c-.99,2.51-2.89,4.53-5.72,6.06-2.83,1.53-5.9,2.29-9.22,2.29-2.51,0-4.94-.52-7.27-1.57-2.33-1.05-4.26-2.62-5.79-4.71-1.53-2.09-2.38-4.66-2.56-7.72h52.22c.09-.89,.2-1.93,.34-3.12,.13-1.19,.2-2.41,.2-3.66,0-6.29-1.46-12.18-4.37-17.68-2.92-5.49-7.2-9.9-12.85-13.23Zm-35.93,24.49c.27-2.94,1.08-5.44,2.42-7.52,1.35-2.07,3.14-3.69,5.38-4.86,2.24-1.17,4.66-1.75,7.27-1.75,2.87,0,5.38,.58,7.54,1.75,2.15,1.17,3.95,2.81,5.38,4.93,1.43,2.12,2.29,4.6,2.56,7.45h-30.55Z"/>
      <path class="cls-1" d="M514.1,545.44c2.33-2.78,4.15-5.97,5.45-9.56,1.3-3.58,1.95-7.31,1.95-11.17s-.78-7.98-2.35-11.85c-1.57-3.86-3.72-7.31-6.46-10.36-2.74-3.05-6.04-5.52-9.89-7.41-3.86-1.89-8.08-2.82-12.65-2.82h-42.93v95.55h22.07v-30.82h14.94l18.31,30.82h24.36l-21-35.53c3.14-1.79,5.88-4.08,8.21-6.86Zm-16.42-14c-.9,1.98-2.05,3.5-3.43,4.57-1.39,1.08-2.94,1.62-4.64,1.62h-20.33v-25.97h19.52c1.61,0,3.21,.54,4.78,1.62,1.57,1.07,2.87,2.58,3.9,4.51,1.03,1.93,1.54,4.24,1.54,6.93,0,2.52-.45,4.76-1.34,6.73Z"/>
      <path class="cls-1" d="M665.58,525.61c-1.48-2.61-3.64-4.72-6.46-6.31-2.82-1.6-6.57-2.39-11.24-2.39-4.04,0-7.81,.49-11.31,1.46-3.49,.98-6.59,2.44-9.28,4.39-2.69,1.95-4.94,4.34-6.73,7.17v-11.94h-19.38v69.85h21.53v-39.98c.8-2.34,2.06-4.43,3.77-6.25,1.7-1.82,3.58-3.25,5.65-4.3,2.07-1.04,4.09-1.56,6.06-1.56,2.78,0,5.09,1.04,6.93,3.11,1.84,2.07,2.76,5.39,2.76,9.97v39h21.53v-44.63c0-2.92-.27-5.93-.81-9.04-.54-3.1-1.55-5.95-3.03-8.57Z"/>
      <path class="cls-1" d="M722.4,560.44s-.01,.02-.01,.03c-1.32,2.39-2.83,4.32-4.5,5.77-1.68,1.46-3.41,2.51-5.18,3.15-1.78,.64-3.64,.97-5.58,.97-3.1,0-5.52-1.11-7.24-3.34-1.73-2.23-2.6-5.39-2.6-9.49v-39.54h-21.27v44.29c0,8.5,1.88,14.97,5.65,19.39,2.82,3.32,6.58,5.39,11.28,6.22,1.57,.28,3.24,.42,5.01,.42,2.12,0,4.16-.14,6.12-.42,3.53-.49,6.8-1.42,9.82-2.8,3.18-1.46,6.01-3.46,8.49-6.02v8.82h21.29v-69.9h-21.27v42.45Z"/>
      <path class="cls-1" d="M823.39,516.1h-2.15c-4.22,.09-8.26,1.48-12.11,4.17-3.86,2.69-7.04,6.41-9.56,11.17v-13.46h-19.65v69.85h21.53v-42.39c1.89-3.23,4.94-5.67,9.16-7.34,4.21-1.66,8.92-2.49,14.13-2.49v-19.38c-.45-.09-.9-.13-1.34-.13Z"/>
      <path class="cls-1" d="M751.79,518h21.53v69.84h-21.53v-69.84Zm10.36-27.97c-6.95,0-12.58,4.85-12.58,10.83s5.63,10.83,12.58,10.83,12.58-4.85,12.58-10.83-5.63-10.83-12.58-10.83Z"/>
    </g>
  </g>
  <path class="cls-1" d="M816.02,588.51c-.9,0-1.74-.17-2.53-.51-.79-.34-1.48-.81-2.08-1.41-.6-.6-1.07-1.29-1.41-2.08-.34-.79-.51-1.63-.51-2.53s.17-1.74,.51-2.53c.34-.79,.81-1.48,1.41-2.08,.6-.6,1.29-1.07,2.08-1.41,.79-.34,1.63-.51,2.53-.51s1.75,.17,2.54,.51c.79,.34,1.48,.81,2.08,1.41,.6,.6,1.06,1.29,1.4,2.08s.5,1.63,.5,2.53-.17,1.74-.5,2.53c-.34,.79-.8,1.48-1.4,2.08-.6,.6-1.29,1.07-2.08,1.41-.79,.34-1.63,.51-2.54,.51Zm0-1.22c.98,0,1.87-.24,2.67-.72,.8-.48,1.44-1.12,1.92-1.92,.48-.8,.72-1.69,.72-2.67s-.24-1.87-.72-2.67c-.48-.8-1.12-1.44-1.92-1.92-.8-.48-1.69-.72-2.67-.72s-1.86,.24-2.66,.72c-.8,.48-1.44,1.12-1.92,1.92-.47,.8-.71,1.69-.71,2.67s.24,1.87,.71,2.67c.47,.8,1.11,1.44,1.92,1.92,.8,.48,1.69,.72,2.66,.72Zm-2.24-2.33v-6.01h2.89c.31,0,.61,.07,.9,.22,.29,.15,.53,.36,.72,.63,.19,.28,.28,.62,.28,1.02s-.1,.76-.29,1.06c-.19,.29-.44,.52-.73,.68-.3,.16-.61,.24-.93,.24h-2.23v-.84h1.95c.28,0,.53-.1,.75-.3,.22-.2,.32-.48,.32-.85s-.11-.64-.32-.8c-.22-.16-.46-.24-.73-.24h-1.5v5.18h-1.08Zm3.84,0l-1.47-2.8h1.17l1.49,2.8h-1.19Z"/>
</svg>