<svg width="537" height="198" viewBox="0 0 537 198" fill="none" xmlns="http://www.w3.org/2000/svg">
<path d="M156.09 89.2734C156.09 74.0447 150.736 59.4912 141.013 48.2773C131.349 37.1364 118.229 30.2383 104.066 28.8697C102.359 28.6963 100.566 28.605 98.7555 28.605H49.6797L41.1283 44.8374H98.7555C121.91 44.8374 140.754 64.7742 140.754 89.2824C140.754 102.412 135.401 114.63 126.004 123.098L121.151 114.21C127.582 107.732 131.246 98.7171 131.246 89.2824C131.246 70.3219 116.669 54.9016 98.7555 54.9016H62.9551C51.1279 54.9016 39.9732 59.7193 31.5425 68.4788C27.7409 72.4114 24.6548 76.9736 22.379 82.0559C20.4308 86.3626 19.1291 90.9431 18.5085 95.6422C18.1981 97.8868 18.043 100.177 18.043 102.44C18.043 104.703 18.1981 106.984 18.5085 109.228C19.1464 113.964 20.4481 118.535 22.379 122.806C24.6462 127.879 27.7236 132.45 31.5252 136.392C36.4819 141.52 42.5421 145.398 49.0935 147.651V173.994H62.3172V149.96C62.5327 149.96 62.7482 149.96 62.9637 149.96H98.7641C103.816 149.96 108.815 149.266 113.634 147.898L115.47 147.378L107.514 132.788L106.497 132.988C103.971 133.49 101.376 133.737 98.7727 133.737H62.9723C53.5848 133.737 44.9558 129.174 39.3094 121.209C36.6457 117.45 34.8527 113.243 33.9907 108.69C33.5941 106.628 33.3959 104.52 33.3959 102.422C33.3959 100.323 33.5941 98.2153 33.9907 96.1532C34.8527 91.6639 36.6888 87.3298 39.3094 83.6344C44.2834 76.6269 51.8434 72.1194 60.0587 71.2617C60.9638 71.1614 61.912 71.1157 62.9723 71.1157H98.7727C108.238 71.1157 115.936 79.2638 115.936 89.2824C115.936 92.8775 114.927 96.3721 113.065 99.3467L105.764 85.9521L104.919 84.3918L104.85 84.3187C104.678 84.0815 104.479 83.8443 104.238 83.5888C102.79 82.0194 100.859 81.1617 98.7814 81.1617H62.981C60.7914 81.1617 58.6277 81.5358 56.5588 82.2749L55.5675 82.6399V82.6672C50.2314 84.9118 45.973 89.5744 44.0593 95.3228C43.292 97.5857 42.9127 99.9763 42.9127 102.412C42.9127 104.849 43.3007 107.239 44.0593 109.493C46.8867 117.97 54.4899 123.654 62.9896 123.654H98.79C99.2296 123.654 99.6606 123.645 100.092 123.627L102.497 123.517L93.7212 107.431H62.9982C62.0844 107.431 61.1965 107.157 60.4293 106.637C59.0587 105.697 58.2484 104.119 58.2484 102.403C58.2484 101.537 58.4553 100.715 58.8604 99.9489L58.938 99.8029C59.8001 98.2974 61.3431 97.3667 63.0068 97.3667H96.7642L138.539 173.948H153.805L133.806 137.295C147.805 125.853 156.133 107.997 156.133 89.246L156.09 89.2734Z" fill="#2338EB"/>
<path d="M298.239 84.7659C293.369 81.7366 287.49 80.2219 280.602 80.2219C273.714 80.2219 267.844 81.7548 262.965 84.8206C258.094 87.8864 254.361 91.9376 251.767 96.9834C249.172 102.029 247.879 107.613 247.879 113.745C247.879 118.033 248.612 122.139 250.086 126.072C251.551 129.996 253.698 133.463 256.525 136.456C259.344 139.449 262.766 141.821 266.792 143.564C270.809 145.297 275.412 146.173 280.602 146.173C285.24 146.173 289.481 145.416 293.308 143.901C297.136 142.387 300.446 140.379 303.23 137.879C306.015 135.379 308.178 132.459 309.73 129.101L293.955 124.311C293.101 126.601 291.463 128.444 289.024 129.84C286.584 131.237 283.938 131.93 281.076 131.93C278.912 131.93 276.817 131.456 274.809 130.497C272.8 129.539 271.137 128.107 269.818 126.2C268.499 124.293 267.766 121.948 267.611 119.156H312.626C312.704 118.344 312.799 117.395 312.92 116.309C313.032 115.223 313.092 114.11 313.092 112.969C313.092 107.23 311.833 101.856 309.325 96.8375C306.808 91.8282 303.118 87.8043 298.248 84.7659H298.239ZM267.266 107.112C267.499 104.429 268.197 102.148 269.352 100.25C270.516 98.3612 272.059 96.8831 273.99 95.8155C275.921 94.748 278.007 94.2188 280.257 94.2188C282.731 94.2188 284.895 94.748 286.757 95.8155C288.61 96.8831 290.162 98.3795 291.395 100.314C292.627 102.248 293.369 104.511 293.601 107.112H267.266Z" fill="#2338EB"/>
<path d="M241.173 106.245C243.181 103.708 244.75 100.798 245.871 97.5219C246.991 94.2553 247.552 90.8519 247.552 87.3299C247.552 83.8079 246.879 80.0486 245.526 76.5174C244.172 72.9954 242.319 69.8475 239.957 67.0645C237.595 64.2816 234.75 62.0278 231.432 60.3033C228.104 58.5788 224.466 57.7302 220.527 57.7302H183.52V144.914H202.545V116.793H215.424L231.207 144.914H252.207L234.104 112.495C236.811 110.862 239.173 108.772 241.181 106.236L241.173 106.245ZM227.018 93.4706C226.242 95.2772 225.251 96.6642 224.061 97.6405C222.863 98.6259 221.527 99.1186 220.061 99.1186H202.536V75.4225H219.363C220.751 75.4225 222.13 75.9152 223.484 76.9007C224.837 77.877 225.958 79.2547 226.846 81.0157C227.733 82.7768 228.173 84.8845 228.173 87.339C228.173 89.6383 227.785 91.6822 227.018 93.4797V93.4706Z" fill="#2338EB"/>
<path d="M371.753 88.151C370.478 85.7696 368.616 83.8443 366.185 82.3935C363.754 80.9336 360.521 80.2128 356.495 80.2128C353.013 80.2128 349.763 80.6599 346.746 81.545C343.737 82.4391 341.065 83.7713 338.746 85.5506C336.427 87.3299 334.488 89.5106 332.945 92.0928V81.1982H316.238V144.932H334.798V108.453C335.488 106.318 336.574 104.411 338.048 102.75C339.513 101.089 341.134 99.7847 342.918 98.8266C344.703 97.8777 346.444 97.4032 348.142 97.4032C350.539 97.4032 352.53 98.3521 354.116 100.241C355.702 102.13 356.495 105.159 356.495 109.338V144.923H375.055V104.201C375.055 101.537 374.822 98.7901 374.357 95.9524C373.891 93.1238 373.021 90.5234 371.745 88.1328L371.753 88.151Z" fill="#2338EB"/>
<path d="M420.735 119.931C420.735 119.931 420.727 119.95 420.727 119.959C419.589 122.14 418.287 123.901 416.847 125.224C415.399 126.556 413.908 127.514 412.382 128.098C410.848 128.682 409.244 128.983 407.572 128.983C404.9 128.983 402.813 127.97 401.331 125.935C399.839 123.901 399.089 121.017 399.089 117.276V81.1982H380.754V121.61C380.754 129.366 382.375 135.27 385.624 139.303C388.055 142.332 391.297 144.221 395.348 144.978C396.702 145.233 398.141 145.361 399.667 145.361C401.495 145.361 403.253 145.233 404.943 144.978C407.986 144.531 410.805 143.682 413.408 142.423C416.149 141.091 418.589 139.266 420.727 136.93V144.978H439.079V81.1982H420.744V119.931H420.735Z" fill="#2338EB"/>
<path d="M507.792 79.4737H505.939C502.301 79.5558 498.818 80.8241 495.499 83.2786C492.172 85.7331 489.431 89.1274 487.258 93.4706V81.1891H470.319V144.923H488.879V106.245C490.508 103.298 493.137 101.071 496.775 99.5474C500.404 98.0328 504.465 97.2755 508.956 97.2755V79.5923C508.568 79.5102 508.18 79.4737 507.801 79.4737H507.792Z" fill="#2338EB"/>
<path d="M446.07 81.2074H464.63V144.932H446.07V81.2074ZM455.001 55.6863C449.01 55.6863 444.156 60.1117 444.156 65.5681C444.156 71.0245 449.01 75.4498 455.001 75.4498C460.992 75.4498 465.845 71.0245 465.845 65.5681C465.845 60.1117 460.992 55.6863 455.001 55.6863Z" fill="#2338EB"/>
<path d="M501.44 145.544C500.664 145.544 499.94 145.389 499.259 145.078C498.578 144.768 497.983 144.339 497.466 143.792C496.948 143.244 496.543 142.615 496.25 141.894C495.957 141.173 495.811 140.407 495.811 139.585C495.811 138.764 495.957 137.998 496.25 137.277C496.543 136.556 496.948 135.927 497.466 135.379C497.983 134.832 498.578 134.403 499.259 134.093C499.94 133.782 500.664 133.627 501.44 133.627C502.216 133.627 502.948 133.782 503.629 134.093C504.31 134.403 504.905 134.832 505.422 135.379C505.94 135.927 506.336 136.556 506.629 137.277C506.922 137.998 507.06 138.764 507.06 139.585C507.06 140.407 506.914 141.173 506.629 141.894C506.336 142.615 505.94 143.244 505.422 143.792C504.905 144.339 504.31 144.768 503.629 145.078C502.948 145.389 502.224 145.544 501.44 145.544ZM501.44 144.43C502.284 144.43 503.052 144.212 503.741 143.774C504.431 143.336 504.983 142.752 505.396 142.022C505.81 141.292 506.017 140.48 506.017 139.585C506.017 138.691 505.81 137.879 505.396 137.149C504.983 136.419 504.431 135.835 503.741 135.397C503.052 134.959 502.284 134.74 501.44 134.74C500.595 134.74 499.836 134.959 499.147 135.397C498.457 135.835 497.905 136.419 497.492 137.149C497.086 137.879 496.879 138.691 496.879 139.585C496.879 140.48 497.086 141.292 497.492 142.022C497.897 142.752 498.448 143.336 499.147 143.774C499.836 144.212 500.603 144.43 501.44 144.43ZM499.509 142.305V136.821H502C502.267 136.821 502.526 136.885 502.776 137.021C503.026 137.158 503.233 137.35 503.396 137.596C503.56 137.852 503.638 138.162 503.638 138.527C503.638 138.892 503.552 139.22 503.388 139.494C503.224 139.759 503.009 139.969 502.759 140.115C502.5 140.261 502.233 140.334 501.957 140.334H500.035V139.567H501.716C501.957 139.567 502.172 139.476 502.362 139.293C502.552 139.111 502.638 138.855 502.638 138.518C502.638 138.18 502.543 137.934 502.362 137.788C502.172 137.642 501.965 137.569 501.733 137.569H500.44V142.295H499.509V142.305ZM502.819 142.305L501.552 139.75H502.56L503.845 142.305H502.819Z" fill="#2338EB"/>
</svg>
