<svg width="491" height="146" viewBox="0 0 491 146" fill="none" xmlns="http://www.w3.org/2000/svg">
<path d="M138.047 60.6683C138.047 45.4396 132.693 30.8862 122.97 19.6723C113.306 8.53133 100.186 1.63328 86.0227 0.264616C84.3158 0.091252 82.5228 0 80.7125 0H31.6368L23.0854 16.2324H80.7125C103.867 16.2324 122.711 36.1692 122.711 60.6774C122.711 73.8074 117.358 86.025 107.962 94.4925L103.108 85.6053C109.539 79.127 113.203 70.112 113.203 60.6774C113.203 41.7168 98.6257 26.2966 80.7125 26.2966H44.9121C33.085 26.2966 21.9302 31.1143 13.4995 39.8737C9.69793 43.8063 6.61184 48.3686 4.33606 53.4509C2.38785 57.7576 1.08617 62.3381 0.465507 67.0371C0.155174 69.2818 0 71.572 0 73.8349C0 76.0977 0.155174 78.3788 0.465507 80.6234C1.10341 85.359 2.4051 89.9303 4.33606 94.2006C6.60322 99.2738 9.68068 103.845 13.4823 107.787C18.439 112.915 24.4991 116.793 31.0506 119.046V145.389H44.2742V121.355C44.4897 121.355 44.7052 121.355 44.9207 121.355H80.7211C85.7727 121.355 90.7725 120.661 95.5913 119.293L97.4274 118.773L89.4708 104.183L88.4536 104.383C85.9278 104.885 83.3331 105.132 80.7298 105.132H44.9294C35.5418 105.132 26.9128 100.569 21.2665 92.6038C18.6028 88.8445 16.8097 84.6381 15.9477 80.0851C15.5512 78.0229 15.3529 75.9152 15.3529 73.8166C15.3529 71.718 15.5512 69.6102 15.9477 67.5481C16.8097 63.0589 18.6459 58.7248 21.2665 55.0294C26.2404 48.0218 33.8005 43.5144 42.0157 42.6567C42.9208 42.5563 43.8691 42.5107 44.9294 42.5107H80.7298C90.1949 42.5107 97.8929 50.6588 97.8929 60.6774C97.8929 64.2724 96.8843 67.7671 95.0223 70.7417L87.7209 57.347L86.8761 55.7867L86.8071 55.7137C86.6347 55.4765 86.4365 55.2392 86.1951 54.9838C84.7469 53.4144 82.8159 52.5567 80.7384 52.5567H44.938C42.7484 52.5567 40.5847 52.9308 38.5158 53.6698L37.5245 54.0348V54.0622C32.1885 56.3068 27.93 60.9694 26.0163 66.7178C25.2491 68.9806 24.8698 71.3712 24.8698 73.8075C24.8698 76.2437 25.2577 78.6343 26.0163 80.888C28.8438 89.3646 36.4469 95.0491 44.9466 95.0491H80.747C81.1866 95.0491 81.6177 95.04 82.0487 95.0217L84.4538 94.9122L75.6782 78.8259H44.9552C44.0415 78.8259 43.1536 78.5522 42.3864 78.0321C41.0157 77.0922 40.2054 75.5137 40.2054 73.7983C40.2054 72.9315 40.4123 72.1103 40.8174 71.3438L40.8951 71.1979C41.7571 69.6923 43.3001 68.7617 44.9639 68.7617H78.7212L120.496 145.343H135.762L115.763 108.69C129.762 97.2481 138.09 79.3916 138.09 60.6409L138.047 60.6683Z" fill="white"/>
<path d="M280.196 56.1608C275.326 53.1315 269.447 51.6168 262.559 51.6168C255.671 51.6168 249.801 53.1498 244.922 56.2156C240.051 59.2814 236.318 63.3326 233.724 68.3784C231.129 73.4242 229.836 79.0083 229.836 85.1399C229.836 89.4284 230.569 93.5344 232.043 97.4671C233.508 101.391 235.655 104.858 238.482 107.851C241.301 110.843 244.723 113.216 248.749 114.959C252.766 116.692 257.369 117.568 262.559 117.568C267.197 117.568 271.438 116.811 275.265 115.296C279.093 113.782 282.403 111.774 285.187 109.274C287.972 106.774 290.135 103.854 291.687 100.496L275.912 95.706C275.058 97.9963 273.421 99.8394 270.981 101.235C268.541 102.631 265.895 103.325 263.033 103.325C260.869 103.325 258.775 102.85 256.766 101.892C254.757 100.934 253.094 99.5018 251.775 97.5948C250.456 95.6878 249.723 93.3429 249.568 90.5508H294.584C294.661 89.7387 294.756 88.7897 294.877 87.7039C294.989 86.6181 295.049 85.5049 295.049 84.3644C295.049 78.6251 293.79 73.2509 291.282 68.2324C288.765 63.2231 285.075 59.1993 280.205 56.1608H280.196ZM249.223 78.5065C249.456 75.8239 250.154 73.5428 251.309 71.6449C252.473 69.7562 254.016 68.278 255.947 67.2105C257.878 66.1429 259.964 65.6137 262.214 65.6137C264.688 65.6137 266.852 66.1429 268.714 67.2105C270.567 68.278 272.119 69.7744 273.352 71.7088C274.584 73.6432 275.326 75.9061 275.558 78.5065H249.223Z" fill="white"/>
<path d="M223.13 77.6398C225.138 75.1032 226.707 72.1925 227.828 68.9168C228.948 65.6503 229.509 62.2469 229.509 58.7248C229.509 55.2028 228.836 51.4435 227.483 47.9124C226.13 44.3903 224.276 41.2424 221.914 38.4595C219.552 35.6765 216.707 33.4228 213.389 31.6983C210.061 29.9738 206.423 29.1252 202.484 29.1252H165.477V116.309H184.502V88.1876H197.381L213.164 116.309H234.164L216.061 83.89C218.768 82.2567 221.13 80.1672 223.138 77.6306L223.13 77.6398ZM208.975 64.8656C208.199 66.6722 207.208 68.0591 206.018 69.0354C204.82 70.0209 203.484 70.5136 202.018 70.5136H184.493V46.8175H201.32C202.708 46.8175 204.087 47.3102 205.441 48.2956C206.794 49.2719 207.915 50.6497 208.803 52.4107C209.69 54.1717 210.13 56.2795 210.13 58.7339C210.13 61.0333 209.742 63.0772 208.975 64.8747V64.8656Z" fill="white"/>
<path d="M353.711 59.546C352.435 57.1645 350.573 55.2393 348.142 53.7885C345.711 52.3286 342.478 51.6077 338.452 51.6077C334.97 51.6077 331.72 52.0548 328.703 52.9399C325.694 53.8341 323.022 55.1663 320.703 56.9455C318.384 58.7248 316.445 60.9055 314.902 63.4877V52.5932H298.195V116.327H316.755V79.8478C317.445 77.7127 318.531 75.8057 320.005 74.1451C321.47 72.4844 323.091 71.1796 324.875 70.2216C326.66 69.2726 328.401 68.7982 330.099 68.7982C332.496 68.7982 334.487 69.7471 336.073 71.6358C337.659 73.5246 338.452 76.5539 338.452 80.7329V116.318H357.012V75.5959C357.012 72.9315 356.779 70.1851 356.314 67.3474C355.848 64.5188 354.978 61.9184 353.702 59.5278L353.711 59.546Z" fill="white"/>
<path d="M402.692 91.3264C402.692 91.3264 402.684 91.3446 402.684 91.3537C401.546 93.5345 400.244 95.2955 398.804 96.6185C397.356 97.9507 395.865 98.9088 394.339 99.4928C392.805 100.077 391.201 100.378 389.529 100.378C386.857 100.378 384.77 99.365 383.288 97.3303C381.796 95.2955 381.046 92.4122 381.046 88.6712V52.5932H362.711V93.0053C362.711 100.761 364.332 106.665 367.581 110.698C370.012 113.727 373.254 115.616 377.305 116.373C378.659 116.628 380.098 116.756 381.624 116.756C383.452 116.756 385.21 116.628 386.9 116.373C389.943 115.926 392.762 115.077 395.365 113.818C398.106 112.486 400.546 110.661 402.684 108.325V116.373H421.036V52.5932H402.701V91.3264H402.692Z" fill="white"/>
<path d="M489.749 50.8687H487.896C484.258 50.9508 480.775 52.2191 477.456 54.6736C474.129 57.128 471.388 60.5223 469.215 64.8655V52.584H452.276V116.318H470.836V77.6397C472.465 74.6925 475.094 72.4662 478.732 70.9424C482.361 69.4277 486.422 68.6704 490.913 68.6704V50.9873C490.525 50.9052 490.137 50.8687 489.758 50.8687H489.749Z" fill="white"/>
<path d="M428.027 52.6023H446.587V116.327H428.027V52.6023ZM436.958 27.0813C430.967 27.0813 426.113 31.5066 426.113 36.963C426.113 42.4194 430.967 46.8448 436.958 46.8448C442.949 46.8448 447.802 42.4194 447.802 36.963C447.802 31.5066 442.949 27.0813 436.958 27.0813Z" fill="white"/>
</svg>
