<?xml version="1.0" encoding="UTF-8"?>
<svg id="Layer_1" data-name="Layer 1" xmlns="http://www.w3.org/2000/svg" viewBox="0 0 1080 1080">
  <defs>
    <style>
      .cls-1 {
        fill: #2438eb;
      }

      .cls-2 {
        fill: #f8f8f8;
      }
    </style>
  </defs>
  <rect class="cls-1" x="380.68" y="380.68" width="318.64" height="318.64" rx="81.7" ry="81.7"/>
  <path class="cls-2" d="M629.24,525.33c0-18.6-6.92-36.38-19.49-50.08-12.49-13.61-29.46-22.03-47.77-23.71-2.21-.21-4.52-.32-6.87-.32h-63.45l-11.06,19.83h74.51c29.94,0,54.3,24.35,54.3,54.29,0,16.03-6.92,30.97-19.07,41.31l-6.27-10.85c8.32-7.92,13.06-18.93,13.06-30.45,0-23.16-18.85-42-42.01-42h-46.29c-15.29,0-29.72,5.89-40.62,16.58-4.92,4.8-8.9,10.38-11.85,16.58-2.51,5.26-4.2,10.85-5,16.6-.4,2.75-.6,5.54-.6,8.3s.2,5.55,.6,8.29c.82,5.78,2.51,11.36,5,16.59,2.94,6.19,6.91,11.78,11.83,16.6,6.41,6.27,14.24,11,22.71,13.75v32.17h17.09v-29.35c.28,0,.56,0,.84,0h46.29c6.53,0,13-.85,19.22-2.52l2.37-.64-10.29-17.83-1.31,.25c-3.26,.61-6.62,.92-9.99,.92h-46.29c-12.14,0-23.29-5.58-30.59-15.3-3.44-4.59-5.76-9.73-6.88-15.29-.51-2.52-.77-5.09-.77-7.65s.26-5.14,.77-7.65c1.11-5.49,3.49-10.78,6.88-15.3,6.43-8.56,16.21-14.07,26.82-15.11,1.17-.12,2.4-.18,3.77-.18h46.29c12.23,0,22.19,9.95,22.19,22.19,0,4.39-1.3,8.66-3.71,12.29l-9.44-16.36-1.09-1.9-.08-.08c-.22-.29-.48-.58-.8-.9-1.87-1.91-4.37-2.96-7.06-2.96h-46.29c-2.83,0-5.63,.46-8.31,1.36l-1.28,.44v.04c-6.9,2.74-12.4,8.44-14.88,15.46-.99,2.76-1.49,5.68-1.49,8.66s.5,5.9,1.49,8.65c3.65,10.35,13.49,17.3,24.47,17.3h46.29c.56,0,1.13-.01,1.68-.03l3.11-.13-11.35-19.65h-39.73c-1.18,0-2.33-.34-3.32-.97-1.77-1.14-2.82-3.07-2.82-5.17,0-1.06,.27-2.07,.79-2.99l.09-.17c1.11-1.84,3.11-2.97,5.26-2.97h43.65l54.01,93.54h19.74l-25.86-44.77c18.11-13.98,28.86-35.79,28.86-58.69Z"/>
</svg>